<svg align="center" width="143" height="147" fill="none" xmlns="http://www.w3.org/2000/svg">
  <path d="M76.5 14.887l54.457 31.44a2 2 0 011 1.732v62.882c0 .714-.381 1.374-1 1.732L76.5 144.113a1.996 1.996 0 01-2 0l-54.457-31.44a2.001 2.001 0 01-1-1.732V48.059a2 2 0 011-1.732L74.5 14.887a2 2 0 012 0z" fill="#fff" stroke="#005B5C" stroke-width="4"/>
  <path d="M73.5 78.967a4 4 0 014 0l40.304 23.27c1.333.769 1.333 2.694 0 3.464L77.498 128.97a3.998 3.998 0 01-4 0l-40.304-23.269c-1.333-.77-1.333-2.694 0-3.464L73.5 78.967z" fill="#E6F0FF"/>
  <path d="M73.5 28.342a4 4 0 014 0l40.304 23.27c1.333.77 1.333 2.694 0 3.464l-40.306 23.27a4 4 0 01-4 0l-40.304-23.27c-1.333-.77-1.333-2.694 0-3.464L73.5 28.342z" fill="#005B5C"/>
  <path stroke="#74AFFF" d="M.987 41.817l9.527 5.5M.988 104.817l9.527 5.5"/>
  <path d="M5.501 44.5v63" stroke="#74AFFF" stroke-dasharray="3 2"/>
  <path stroke="#74AFFF" d="M57.815 2.317l9.527 5.5M3.255 33.829l9.526 5.5"/>
  <path stroke="#74AFFF" stroke-dasharray="3 2" d="M62.325 5.512L8.248 36.434"/>
</svg>
